<?xml version="1.0" ?><!-- Uploaded to: SVG Repo, www.svgrepo.com, Generator: SVG Repo Mixer Tools -->
<svg fill="#000000" width="800px" height="800px" viewBox="0 0 512 512" id="icon" version="1.1" xml:space="preserve" xmlns="http://www.w3.org/2000/svg" xmlns:xlink="http://www.w3.org/1999/xlink"><path d="M433.8930969,332.8642883h-7.5390015c6.3515015-23.5568848,9.6062012-48.1877747,9.6062012-73.3526001  c0-27.7396851-3.9335938-54.7311859-11.6080017-80.3759918h9.540802c1.6557922,0,3.2156067-0.7734985,4.2167969-2.0903015  c1.0012207-1.319397,1.3296204-3.0267944,0.8898926-4.6227875l-10.6193848-38.3125  c-0.6364136-2.2946014-2.7265015-3.8829041-5.1064148-3.8829041h-19.2392883  c-12.3104858-22.488205-27.5228882-41.8430023-45.3127136-57.4947052c-0.9675903-0.8511963-2.2116699-1.3192978-3.5-1.3192978  H156.7756958c-1.2885895,0-2.5326996,0.4681015-3.5002899,1.3192978  c-17.7911987,15.6540985-33.0039063,35.0089035-45.3129044,57.4947052h-19.2388  c-2.3798981,0-4.4701996,1.5883026-5.1067047,3.8829041l-10.6166992,38.3125  c-0.4398956,1.595993-0.1112976,3.3058929,0.8899002,4.6227875c1.0012054,1.316803,2.5610046,2.0903015,4.2164993,2.0903015  h9.5384064c-7.6724014,25.6387024-11.6053009,52.6278992-11.6053009,80.3759918  c0,25.1719971,3.2537003,49.803009,9.6027985,73.3526001h-7.5359039c-1.6554947,0-3.2152939,0.773407-4.2164993,2.0901184  c-1.0011978,1.3168945-1.3297958,3.0267944-0.8899002,4.6229858l10.6166992,38.3125  c0.6365051,2.2971191,2.7268066,3.8856201,5.1067047,3.8856201h15.5499954  c11.0948029,21.9523926,24.9456024,41.2365723,41.2615051,57.2902832c0.9906921,0.9725952,2.3256989,1.5209961,3.7149048,1.5209961  H362.747406c1.3890991,0,2.7237854-0.5484009,3.7147827-1.5209961c16.3196106-16.0601807,30.16922-35.3424072,41.2597961-57.2902832  h15.552002c2.3799133,0,4.4700012-1.588501,5.1064148-3.8856201l10.6193848-38.3125  c0.4397278-1.5961914,0.1113281-3.3060913-0.8898926-4.6229858  C437.1087036,333.6376953,435.5488892,332.8642883,433.8930969,332.8642883z M425.3641052,259.5116882  c0,25.2167969-3.3916016,49.8641968-10.0065918,73.3526001h-43.2805176  c4.300293-23.5672913,6.5827026-48.176178,6.5827026-73.3526001c0-27.7586823-2.7526855-54.7220917-7.9475098-80.3759918h42.5615234  C421.2670898,204.6959076,425.3641052,231.7021942,425.3641052,259.5116882z M353.206604,82.0091019  c14.8956909,13.397995,27.8821106,29.5861969,38.7106934,48.2181015h-34.865509  c-6.7702942-18.2577057-14.8554993-34.4192047-24.1229858-48.2181015H353.206604z M319.9733887,82.0091019  c9.9048157,13.421196,18.5557251,29.5896988,25.7686157,48.2181015h-41.6353149  c-3.0726929-18.2996063-6.7450867-34.479805-10.9647827-48.2181015H319.9733887z M282.0201111,82.0091019  c4.3605957,13.5060959,8.1669922,29.6763992,11.3451843,48.2181015h-74.732193  c3.1817017-18.5521011,6.9875946-34.7209015,11.3441925-48.2181015H282.0201111z M218.8554993,82.0091019  c-4.2158051,13.7288971-7.8885956,29.9094009-10.9642944,48.2181015h-41.6338043  c7.2115936-18.626503,15.8612976-34.7957001,25.7667999-48.2181015H218.8554993z M158.7906036,82.0091019h20.2789917  c-9.2684937,13.8009949-17.3536987,29.9618988-24.1230011,48.2181015h-34.8634949  C130.9078064,111.5971985,143.8939056,95.4089966,158.7906036,82.0091019z M85.0733032,168.539505l7.6806946-27.7163086h326.489502  l7.6831055,27.7163086H85.0733032z M310.2903137,179.1356964h49.6371765  c5.3414001,25.5825043,8.1358032,52.5673981,8.1358032,80.3759918c0,25.216217-2.3183899,49.842804-6.7359009,73.3526001  h-50.4216003c1.9402161-23.5414734,2.9666138-48.1536865,2.9666138-73.3526001  C313.872406,231.7420044,312.6333923,204.7743988,310.2903137,179.1356964z M303.2762146,259.5116882  c0,25.2185059-1.0349121,49.8395996-2.9988098,73.3526001h-88.5570984  c-1.963913-23.5130005-2.9993134-48.1340942-2.9993134-73.3526001c0-27.8033905,1.2468109-54.782486,3.6218109-80.3759918  h87.3139954C302.0293884,204.738205,303.2762146,231.7176056,303.2762146,259.5116882z M201.0915985,332.8642883h-50.4216003  c-4.4151001-23.5028992-6.7333984-48.129303-6.7333984-73.3526001c0-27.818985,2.7944031-54.8022919,8.1340027-80.3759918  h49.6381989c-2.3444977,25.6304016-3.5836945,52.599411-3.5836945,80.3759918  C198.1251068,284.7106018,199.1513977,309.3228149,201.0915985,332.8642883z M98.7241974,179.1356964h42.5613098  c-5.1944122,25.6457977-7.9449005,52.607605-7.9449005,80.3759918c0,25.1854248,2.2817993,49.7922974,6.579895,73.3526001  H96.6397018c-6.6133041-23.480896-10.0038986-48.127594-10.0038986-73.3526001  C86.6358032,231.6959991,90.7332001,204.6896973,98.7241974,179.1356964z M151.4360962,429.9906921  c-13.6298981-13.7227783-25.3158951-29.989502-35.0758972-48.2151794h36.0883026  c6.1548004,17.9838867,13.5744934,34.1497803,22.1418915,48.2151794H151.4360962z M187.1356049,429.9906921  c-9.087204-13.7757874-16.9700012-29.9420776-23.4820099-48.2151794h43.105011  c2.7929993,18.0188904,6.1579895,34.2018738,10.0513,48.2151794H187.1356049z M284.1618958,429.9906921h-56.326889  c-4.0046082-13.844696-7.4795074-30.0109863-10.3557129-48.2151794h77.0388031  C291.6416931,399.991394,288.1653137,416.1604004,284.1618958,429.9906921z M295.1888123,429.9906921  c3.8903809-14.0054016,7.2550964-30.1858826,10.0492859-48.2151794h43.1080933  c-6.5116882,18.2737732-14.3981018,34.4389954-23.4842834,48.2151794H295.1888123z M360.5585938,429.9906921h-23.1517944  c8.5679016-14.0657959,15.9890137-30.2306824,22.1452942-48.2151794h36.0847168  C385.8789978,399.9949036,374.192688,416.2612,360.5585938,429.9906921z M419.2434998,371.1794128H156.6941071  c-0.0427094-0.0039978-0.0842133,0.0024719-0.1272125,0H92.7539978l-7.6806946-27.7191162h7.4450989  c0.0328979,0.0009155,0.0629959,0.0155945,0.0959015,0.0155945c0.0348969,0,0.0705948-0.014679,0.1056976-0.0155945h326.6304016  c0.0116882,0,0.023407,0.0052185,0.0351868,0.0052185c0.0109253,0,0.0209045-0.0052185,0.0319214-0.0052185h7.5090942  L419.2434998,371.1794128z"/></svg>