<?xml version="1.0" encoding="iso-8859-1"?>
<!-- Uploaded to: SVG Repo, www.svgrepo.com, Generator: SVG Repo Mixer Tools -->
<!DOCTYPE svg PUBLIC "-//W3C//DTD SVG 1.1//EN" "http://www.w3.org/Graphics/SVG/1.1/DTD/svg11.dtd">
<svg fill="#000000" version="1.1" id="Capa_1" xmlns="http://www.w3.org/2000/svg" xmlns:xlink="http://www.w3.org/1999/xlink" 
	 width="800px" height="800px" viewBox="0 0 401.776 401.776"
	 xml:space="preserve">
<g>
	<path d="M348.793,375.293h-8.834V26.487h8.834c7.315,0,13.241-5.929,13.241-13.239C362.034,5.935,356.101,0,348.793,0H52.978
		c-7.319,0-13.245,5.935-13.245,13.248c0,7.31,5.933,13.239,13.245,13.239h8.826v92.802c-10.06,1.042-17.953,9.458-17.953,19.773
		c0,10.328,7.893,18.75,17.953,19.781v72.748c-10.06,1.034-17.953,9.46-17.953,19.77c0,10.332,7.893,18.754,17.953,19.787v104.145
		h-8.826c-7.319,0-13.245,5.925-13.245,13.237c0,7.313,5.933,13.246,13.245,13.246h295.815c7.321,0,13.251-5.933,13.251-13.246
		C362.044,381.218,356.108,375.293,348.793,375.293z M80.567,43.045h57.951v69.539H80.567V43.045z M138.518,350.454H80.567v-69.533
		h57.951V350.454z M305.743,264.91H64.712c-0.293-0.076-0.572-0.173-0.881-0.173c-7.361,0-13.366-5.999-13.366-13.364
		c0-6.671,4.94-12.17,11.334-13.155v0.199h243.938c7.321,0,13.247,5.93,13.247,13.246S313.059,264.91,305.743,264.91z
		 M80.567,231.246v-69.54h57.951v69.54H80.567z M305.743,152.321H62.805c-6.887-0.533-12.34-6.238-12.34-13.258
		c0-6.941,5.357-12.607,12.151-13.229h243.127c7.315,0,13.247,5.934,13.247,13.245C318.99,146.387,313.059,152.321,305.743,152.321z
		"/>
</g>
</svg>